#!OML:ASF G:\JayActor3\Patient Classification 1\Patient 1\Session 6\male.ASF
:FULLY-SPECIFIED
:DEGREES
1324
root 10.6214 16.3774 -5.22548 161.043 -76.929 -162.137
lowerback 12.1791 -2.26401 -4.5463
upperback 4.25739 -3.73488 -0.352571
thorax -2.08988 -1.96606 2.69535
lowerneck -2.53722 -5.79899 -2.20126
upperneck 12.901 -9.43359 10.1263
head 4.8701 -4.37507 2.97277
rclavicle -4.69132e-014 1.98785e-014
rhumerus -37.3205 5.6356 -83.7824
rradius 62.3753
rwrist 4.05673
rhand -5.65809 -21.8705
rfingers 7.12502
rthumb 20.161 -50.8443
lclavicle -4.69132e-014 1.98785e-014
lhumerus -26.8542 -6.79985 77.923
lradius 28.6519
lwrist 23.0383
lhand -21.5392 10.094
lfingers 7.12502
lthumb 4.85376 40.0184
rfemur -27.0378 -7.36048 23.4815
rtibia 37.0698
rfoot -33.4522 -24.2035
rtoes 12.4978
lfemur 2.21828 4.09316 -20.835
ltibia 16.9461
lfoot -48.6739 40.0817
ltoes 21.5201
1325
root 10.5929 16.3744 -5.25616 162.546 -76.292 -163.612
lowerback 12.0281 -2.2822 -4.66311
upperback 4.24687 -3.76359 -0.324985
thorax -2.00669 -1.98307 2.78454
lowerneck -2.47866 -5.92418 -2.31529
upperneck 12.6862 -9.59924 10.299
head 4.81873 -4.46178 3.03742
rclavicle -5.52621e-014 5.56597e-015
rhumerus -37.2518 5.20115 -83.5388
rradius 61.2391
rwrist 3.91262
rhand -5.70022 -21.7887
rfingers 7.12502
rthumb 20.1205 -50.7668
lclavicle -5.52621e-014 5.56597e-015
lhumerus -26.7739 -6.63079 77.787
lradius 28.7823
lwrist 23.1517
lhand -21.5906 10.1382
lfingers 7.12502
lthumb 4.80413 40.0638
rfemur -27.041 -7.75102 23.4627
rtibia 37.0916
rfoot -34.2216 -24.7296
rtoes 13.4147
lfemur 2.53928 3.77034 -21.0441
ltibia 16.6465
lfoot -49.9202 40.3147
ltoes 22.0659
1326
root 10.5638 16.3704 -5.288 163.808 -75.6583 -164.842
lowerback 11.884 -2.30614 -4.74451
upperback 4.23265 -3.79564 -0.293923
thorax -1.93287 -2.00121 2.85835
lowerneck -2.41113 -6.04534 -2.40906
upperneck 12.4655 -9.75709 10.454
head 4.76234 -4.54526 3.09429
rclavicle -1.39149e-014 2.22639e-014
rhumerus -37.1981 4.78186 -83.3084
rradius 60.1053
rwrist 3.84328
rhand -5.75172 -21.7178
rfingers 7.12502
rthumb 20.071 -50.7011
lclavicle -1.39149e-014 2.22639e-014
lhumerus -26.7041 -6.46103 77.6576
lradius 28.9033
lwrist 23.2576
lhand -21.6287 10.1832
lfingers 7.12502
lthumb 4.76732 40.1096
rfemur -27.0244 -8.14359 23.4892
rtibia 37.1136
rfoot -34.9948 -25.2203
rtoes 14.3472
lfemur 2.82407 3.43289 -21.228
ltibia 16.4181
lfoot -51.1936 40.5004
ltoes 22.5776
1327
root 10.534 16.3656 -5.32105 164.884 -75.0327 -165.882
lowerback 11.739 -2.33551 -4.79867
upperback 4.22016 -3.83133 -0.259217
thorax -1.85784 -2.0211 2.9209
lowerneck -2.34476 -6.15892 -2.48002
upperneck 12.2382 -9.9013 10.5871
head 4.7015 -4.62228 3.14171
rclavicle -2.94201e-014 -2.22639e-014
rhumerus -37.1527 4.37453 -83.0879
rradius 58.9676
rwrist 3.8107
rhand -5.85578 -21.6156
rfingers 7.12502
rthumb 19.971 -50.6094
lclavicle -2.94201e-014 -2.22639e-014
lhumerus -26.6384 -6.28783 77.5372
lradius 29.0134
lwrist 23.3496
lhand -21.671 10.1866
lfingers 7.12502
lthumb 4.72647 40.1139
rfemur -26.9881 -8.52656 23.5537
rtibia 37.1364
rfoot -35.7732 -25.6575
rtoes 15.2865
lfemur 3.07398 3.07992 -21.3931
ltibia 16.2588
lfoot -52.484 40.6414
ltoes 23.0509
1328
root 10.5034 16.3601 -5.35552 165.796 -74.4145 -166.751
lowerback 11.5934 -2.36971 -4.82449
upperback 4.20623 -3.86986 -0.22025
thorax -1.78532 -2.0421 2.97223
lowerneck -2.28921 -6.26212 -2.53222
upperneck 12.0174 -10.0298 10.6995
head 4.64186 -4.69125 3.18043
rclavicle 1.00585e-013 0
rhumerus -37.1186 3.97709 -82.8785
rradius 57.8276
rwrist 3.77926
rhand -6.03751 -21.4835
rfingers 7.12502
rthumb 19.7963 -50.4954
lclavicle 1.00585e-013 0
lhumerus -26.5846 -6.12028 77.4289
lradius 29.1199
lwrist 23.4312
lhand -21.7069 10.1943
lfingers 7.12502
lthumb 4.69177 40.1223
rfemur -26.9377 -8.91554 23.6646
rtibia 37.1622
rfoot -36.5109 -26.045
rtoes 16.1639
lfemur 3.29223 2.71385 -21.5354
ltibia 16.1594
lfoot -53.7779 40.7484
ltoes 23.4738
1329
root 10.4721 16.3546 -5.39143 166.579 -73.8092 -167.488
lowerback 11.4488 -2.40848 -4.82837
upperback 4.19466 -3.91197 -0.178741
thorax -1.71175 -2.06485 3.01415
lowerneck -2.24906 -6.35214 -2.5676
upperneck 11.8053 -10.1387 10.7915
head 4.58457 -4.75006 3.21089
rclavicle -3.77691e-014 1.82882e-014
rhumerus -37.0921 3.58148 -82.6757
rradius 56.6902
rwrist 3.72552
rhand -6.28405 -21.3169
rfingers 7.12502
rthumb 19.5593 -50.353
lclavicle -3.77691e-014 1.82882e-014
lhumerus -26.5383 -5.95918 77.3338
lradius 29.2223
lwrist 23.5032
lhand -21.7478 10.1727
lfingers 7.12502
lthumb 4.65226 40.1016
rfemur -26.8724 -9.32233 23.8168
rtibia 37.1961
rfoot -37.1772 -26.3838
rtoes 16.9342
lfemur 3.49659 2.33171 -21.6614
ltibia 16.099
lfoot -55.0827 40.8043
ltoes 23.8809
1330
root 10.4397 16.3492 -5.42887 167.263 -73.2248 -168.13
lowerback 11.3085 -2.45223 -4.81676
upperback 4.18563 -3.9593 -0.136044
thorax -1.63836 -2.0902 3.04921
lowerneck -2.21646 -6.42831 -2.59285
upperneck 11.5996 -10.2277 10.8698
head 4.52811 -4.79885 3.23651
rclavicle -2.44505e-014 -1.19271e-014
rhumerus -37.0741 3.17889 -82.4738
rradius 55.558
rwrist 3.65309
rhand -6.57134 -21.1297
rfingers 7.12502
rthumb 19.283 -50.1937
lclavicle -2.44505e-014 -1.19271e-014
lhumerus -26.5009 -5.80636 77.2541
lradius 29.3205
lwrist 23.5584
lhand -21.7798 10.1399
lfingers 7.12502
lthumb 4.62143 40.0695
rfemur -26.7994 -9.82692 24.0125
rtibia 37.2426
rfoot -37.655 -26.7028
rtoes 17.4384
lfemur 3.70612 1.92749 -21.7791
ltibia 16.0549
lfoot -56.3885 40.8217
ltoes 24.2729
